P2
6 8
8
0	0	0	0	0	0
0	2	1	1	1	0
0	0	4	4	2	0
0	0	8	1	0	0
0	0	0	0	0	0
0	0	0	0	0	0
0	0	0	0	0	0
0	0	0	0	0	0
